<?xml version="1.0" encoding="UTF-8" standalone="no"?>
<!DOCTYPE svg PUBLIC "-//W3C//DTD SVG 1.1//EN" "http://www.w3.org/Graphics/SVG/1.1/DTD/svg11.dtd">
<svg width="100%" height="100%" viewBox="0 0 877 859" version="1.1" xmlns="http://www.w3.org/2000/svg" xmlns:xlink="http://www.w3.org/1999/xlink" xml:space="preserve" xmlns:serif="http://www.serif.com/" style="fill-rule:evenodd;clip-rule:evenodd;stroke-linejoin:round;stroke-miterlimit:2;">
    <g transform="matrix(1,0,0,1,-379.172,-413.105)">
        <g id="Layer2">
            <path d="M831.494,696.338C829.808,688.908 856.639,685.944 908.305,634.425C1026.56,516.501 1008.21,480.42 963.183,460.105C944.552,451.699 884.213,465.376 855.078,456.018C762.285,426.215 735.674,481.186 735.06,493.462C732.386,546.951 784.718,577.495 766.614,651.289C673.947,582.623 703.965,509.279 689.407,462.316C680.293,432.917 619.025,383.562 549.595,436.522C437.716,521.86 616.469,557.366 650.052,602.144C652.696,605.669 695.646,662.14 695.646,662.14L678.875,678.288C678.875,678.288 661.688,662.085 654.494,639.669C642.515,602.339 606.832,590.97 585.369,587.33C502.421,573.26 528.487,491.755 463.126,508.574C416.969,520.451 397.159,654.331 474.655,659.174C514.841,661.686 518.273,709.44 623.572,705.053C643.951,704.204 666.005,708.59 656.376,725.311C601.79,726.448 580.504,732.213 567.5,730.405C561.7,729.598 541.392,719.647 482.209,686.768C375.234,627.338 371.613,825.901 421.929,863.624C456.339,889.422 498.238,860.488 553.686,827.485C592.915,804.136 598.819,822.552 652.926,800.229C652.926,800.229 648.575,809.281 654.725,815.034C547.524,848.003 557.387,867.542 512.122,882.63C440.339,906.558 399.908,854.178 388.447,928.677C379.719,985.407 394.793,980.022 382.206,1036.66C363.439,1121.11 435.89,1148.08 484.835,1071.94C524.684,1009.95 602.401,839.042 678.115,849.859C682.199,850.442 689.173,853.191 645.563,891.67C608.795,924.112 593.794,914.167 562.098,972.276C558.05,979.696 557.809,985.075 505.662,1067.31C497.593,1080.03 346.95,1196.12 504.785,1255.31C572.87,1280.84 614.837,1270.17 621.583,1265.66C652.422,1245.04 654.854,1218.37 655.32,1200.67C656.711,1147.79 635.145,1120.26 654.134,1090.12C727.07,974.33 694.887,924.741 712.65,877.46C711.731,920.454 723.938,969.937 705.182,1017.2C670.34,1105.01 630.096,1247.28 725.398,1260.89C773.109,1267.71 900.267,1219.77 883.766,1142.63C880.072,1125.37 838.313,1084.41 825.507,1051.63C815.86,1026.94 823.165,957.151 814.197,938.888C794.015,897.79 778.989,911.15 780.56,866.306C789.522,860.102 789.502,876.637 827.285,935.235C838.626,952.824 831.714,990.302 842.701,1029.23C858.355,1084.69 886.337,1122.83 908.676,1144.26C980.743,1213.39 1063.02,1121.53 1071.59,1092.78C1098.57,1002.19 997.996,1021.96 958.843,970.81C936.064,941.05 939.129,903.775 924.362,884.45C893.988,844.701 866.259,852.739 849.122,835.647C847.33,833.86 819.856,815.144 820.068,815.202C825.595,816.717 826.629,796.206 876.141,836.715C883.877,843.045 926.161,858.859 949.321,893.599C963.395,914.711 968.811,948.83 978.187,959.546C1016.09,1002.86 1041.18,1019.43 1116.6,1024.06C1147.59,1025.97 1185.91,981.28 1189.09,955.826C1194.13,915.527 1215.96,929.587 1209.18,889.151C1197.47,819.345 1098.2,864.145 1070.16,837.239C1068.63,835.771 1034.55,805.022 1013.01,793.087C971.567,770.118 913.604,790.304 851.274,757.095C906.345,750.009 913.64,743.382 968.373,766.839C976.963,770.521 1037.19,767.207 1042.81,767.856C1071.17,771.128 1086.77,784.923 1115.02,806.109C1126.42,814.654 1178.47,831.869 1195.83,823.187C1262.58,789.813 1271.53,643.046 1231.76,632.441C1184.12,619.736 1131.67,676.22 1004.32,683.993C980.861,685.425 843.247,763.118 845.487,737.726C846.963,720.987 862.087,746.597 986.498,665.892C1030.46,637.374 1106.87,634.357 1158.41,629.708C1214.6,624.64 1241.03,537.427 1197.17,502.666C1149.93,465.223 1041.58,471.706 1023.92,510.754C977.093,614.3 842.431,720.398 831.494,696.338Z" style="fill:white;"/>
        </g>
    </g>
</svg>
