<?xml version="1.0" encoding="UTF-8" standalone="no"?>
<!DOCTYPE svg PUBLIC "-//W3C//DTD SVG 1.1//EN" "http://www.w3.org/Graphics/SVG/1.1/DTD/svg11.dtd">
<svg width="100%" height="100%" viewBox="0 0 179 428" version="1.1" xmlns="http://www.w3.org/2000/svg" xmlns:xlink="http://www.w3.org/1999/xlink" xml:space="preserve" xmlns:serif="http://www.serif.com/" style="fill-rule:evenodd;clip-rule:evenodd;stroke-linejoin:round;stroke-miterlimit:2;">
    <g transform="matrix(1,0,0,1,-1671.27,-875.651)">
        <g id="Layer3">
            <path d="M1818.66,999.3C1814.41,933.395 1807.95,940.603 1798.11,909.871C1780.97,856.294 1756.02,877.168 1754.2,895.369C1752.67,910.734 1758.53,948.231 1793.28,992.452C1803.74,1005.77 1819.46,1027.02 1818.66,999.3Z" style="fill:white;"/>
            <path d="M1848.82,1212.16C1848.76,1211.82 1845.77,1179.95 1834.37,1147.54C1834.18,1147.01 1807.98,1090.3 1767.9,1082.28C1745.12,1077.73 1712.69,1054.58 1715.93,1096.79C1718.69,1132.58 1728.5,1219.12 1834.37,1238.58C1843.99,1240.35 1851.61,1228.26 1848.82,1212.16Z" style="fill:white;"/>
            <path d="M1776.86,1269.53C1742.31,1235.49 1678.38,1209.89 1672.1,1230.04C1659.71,1269.8 1789.18,1313.97 1796,1301.19C1800.3,1293.14 1784.58,1278.36 1776.86,1269.53Z" style="fill:white;"/>
        </g>
    </g>
</svg>
