<?xml version="1.0" encoding="UTF-8" standalone="no"?>
<!DOCTYPE svg PUBLIC "-//W3C//DTD SVG 1.1//EN" "http://www.w3.org/Graphics/SVG/1.1/DTD/svg11.dtd">
<svg width="100%" height="100%" viewBox="0 0 175 188" version="1.1" xmlns="http://www.w3.org/2000/svg" xmlns:xlink="http://www.w3.org/1999/xlink" xml:space="preserve" xmlns:serif="http://www.serif.com/" style="fill-rule:evenodd;clip-rule:evenodd;stroke-linejoin:round;stroke-miterlimit:2;">
    <g transform="matrix(1,0,0,1,-2295.1,-699.14)">
        <g id="Layer4">
            <path d="M2344.54,700.14C2340.57,696.525 2337.77,703.333 2337.77,710.616C2337.77,736.964 2331.16,748.205 2317.73,757.281C2310,762.501 2304.43,764.351 2298.18,766.225C2293.72,767.564 2294.04,772.922 2299.55,775.203C2300.34,775.528 2306.29,777.156 2313.81,780.739C2328.68,787.819 2330.31,789.441 2335.98,823.45C2337.21,830.821 2336.98,839.333 2342.98,843.833C2354.15,852.216 2348.08,812.944 2354.84,799.416C2354.87,799.352 2358.07,782.41 2384.86,777.703C2390.39,776.731 2393.54,770.672 2385.72,767.741C2383.99,767.091 2384.28,767.845 2365.19,758.303C2345.03,748.223 2351.27,706.277 2344.54,700.14Z" style="fill:rgb(255,187,223);"/>
            <path d="M2428.6,784.978C2420.5,782.06 2423.53,788.296 2420.24,808.782C2416.88,829.689 2394.01,831.046 2395.22,838.565C2396.51,846.486 2405.97,839.768 2416.19,850.642C2422.17,857.006 2425.24,896.714 2432.29,884.797C2433.57,882.645 2439.1,858.607 2443.51,852.605C2451.24,842.072 2489.92,835.909 2454.17,827.861C2428.15,822.004 2436.65,787.88 2428.6,784.978Z" style="fill:rgb(255,187,223);"/>
        </g>
    </g>
</svg>
