<?xml version="1.0" encoding="UTF-8" standalone="no"?>
<!DOCTYPE svg PUBLIC "-//W3C//DTD SVG 1.1//EN" "http://www.w3.org/Graphics/SVG/1.1/DTD/svg11.dtd">
<svg width="100%" height="100%" viewBox="0 0 1212 41" version="1.1" xmlns="http://www.w3.org/2000/svg" xmlns:xlink="http://www.w3.org/1999/xlink" xml:space="preserve" xmlns:serif="http://www.serif.com/" style="fill-rule:evenodd;clip-rule:evenodd;stroke-linecap:round;stroke-linejoin:round;stroke-miterlimit:1.5;">
    <g transform="matrix(1,0,0,1,-1544.16,-593.79)">
        <g id="Layer7">
            <path d="M1549.37,602.319C1566.51,602.319 1572.01,628.402 1588.73,624.61C1613.29,619.042 1613.91,581.62 1650.78,621.246C1678.77,651.331 1689.58,577.935 1713.43,606.043C1739.12,636.32 1741.18,625.035 1769.58,604.991C1788.54,591.602 1811.01,628.077 1819.37,624.731C1845.59,614.239 1856.39,584.157 1871.19,608.298C1904.71,662.982 1917.6,587.35 1940.62,601.28C1971.98,620.254 1968.42,640.299 1997.78,609.217C2007.53,598.887 2020.7,595.974 2032.49,610.574C2055.39,638.93 2058.64,621.871 2083.73,603.203C2105.18,587.242 2114.09,621.617 2127.01,625.069C2153.54,632.153 2149.73,599.843 2167.75,601.035C2194.93,602.834 2201.24,636.905 2220.06,619.463C2246.31,595.134 2252.19,594.834 2273.74,616.345C2302.78,645.313 2316.74,589.078 2335.25,602.735C2351.16,614.479 2356.12,622.201 2362.47,623.569C2381.81,627.738 2392.69,589.146 2420.54,602.906C2427.24,606.216 2435.28,627.05 2448.16,623.512C2467.29,618.263 2480.01,582.93 2506.88,617.034C2527.29,642.931 2542.87,596.734 2564.04,600.404C2588.79,604.694 2587.22,639.598 2619.83,613.512C2636.74,599.983 2646.23,591.961 2667.17,617.281C2679.91,632.692 2692.05,617.373 2707.69,603.972C2720.88,592.665 2737.5,608.509 2750.06,621.064" style="fill:none;stroke:rgb(255,229,32);stroke-width:10.42px;"/>
        </g>
    </g>
</svg>
