<?xml version="1.0" encoding="UTF-8" standalone="no"?>
<!DOCTYPE svg PUBLIC "-//W3C//DTD SVG 1.1//EN" "http://www.w3.org/Graphics/SVG/1.1/DTD/svg11.dtd">
<svg width="100%" height="100%" viewBox="0 0 203 271" version="1.1" xmlns="http://www.w3.org/2000/svg" xmlns:xlink="http://www.w3.org/1999/xlink" xml:space="preserve" xmlns:serif="http://www.serif.com/" style="fill-rule:evenodd;clip-rule:evenodd;stroke-linejoin:round;stroke-miterlimit:2;">
    <g transform="matrix(1,0,0,1,-1295.82,-1681.9)">
        <g id="Layer5">
            <path d="M1343.72,1718.37C1345.3,1718.29 1347.66,1679.32 1355.21,1682.04C1359.94,1683.74 1358.42,1700.38 1359.59,1721.29C1360.63,1721.38 1384.09,1729.41 1388.89,1732.61C1398.92,1739.3 1375.23,1738.86 1362.68,1740.67C1363.21,1773.28 1361.2,1776.54 1358.47,1776C1352.08,1774.72 1349.41,1750.21 1346.61,1747.37C1331.78,1758.04 1317.45,1764.59 1327.57,1746.72C1328.97,1744.26 1338.2,1731.38 1336.55,1730.1C1332.08,1726.62 1321.71,1720.12 1322.43,1716.88C1323.6,1711.62 1338.58,1718.63 1343.72,1718.37Z" style="fill:rgb(212,178,254);"/>
            <path d="M1443.76,1799.52C1446.39,1785.47 1443.19,1757.45 1452.25,1762.89C1456.51,1765.45 1460.66,1804.86 1463.28,1805.79C1470.6,1808.4 1474.12,1808.41 1484.71,1810.5C1515.88,1816.67 1486.2,1822.16 1481.84,1823.46C1476.14,1825.14 1472.14,1826.31 1466.75,1828.82C1467.3,1841.32 1467.19,1842.21 1468.78,1853.4C1472.33,1878.37 1466.03,1878.24 1462.61,1870.69C1462.2,1869.79 1459.49,1863.32 1456.24,1855.12C1449.81,1838.83 1448.18,1839.1 1445.76,1841.3C1445.49,1841.54 1407.08,1878.75 1429.27,1839.31C1437.62,1824.46 1437.76,1822.27 1437.44,1820.66C1435.87,1812.78 1422.95,1802.5 1422.95,1802.5C1422.95,1802.5 1417.2,1797.39 1422.89,1796.31C1425.54,1795.81 1432.08,1798.45 1443.76,1799.52Z" style="fill:rgb(212,178,254);"/>
            <path d="M1349.11,1889.45C1345.87,1879.82 1344.14,1864.59 1341.73,1849.15C1340.07,1838.43 1333.27,1834.94 1331.79,1845.05C1329.59,1859.99 1330.12,1886.24 1323.22,1886.96C1319.68,1887.32 1296.46,1884.25 1295.84,1889.5C1295.06,1896.16 1318.64,1902.33 1321.9,1903.75C1312.59,1938.75 1311.79,1945.92 1318.63,1944.68C1322.87,1943.9 1322.59,1941.14 1336.08,1916.1C1338.19,1916.09 1359.74,1964 1364.7,1949.03C1365.62,1946.27 1357.58,1918.97 1353.01,1906.61C1368.23,1905.33 1379.45,1905.98 1384.79,1904.56C1387.14,1903.93 1389.83,1900.47 1385.04,1898.07C1381.75,1896.43 1357.87,1891.87 1349.11,1889.45Z" style="fill:rgb(212,178,254);"/>
        </g>
    </g>
</svg>
